<svg width="12" height="9" viewBox="0 0 12 9" fill="none" xmlns="http://www.w3.org/2000/svg">
<path d="M11.7478 1.8431C11.6053 1.37938 11.2108 1.01569 10.7027 0.887129C9.76709 0.657848 6.00584 0.657848 6.00584 0.657848C6.00584 0.657848 2.25172 0.652348 1.30634 0.887129C0.800841 1.01604 0.404466 1.37938 0.263466 1.8431C0.0860915 2.72207 -0.0020335 3.61169 0.0020915 4.50544C0.000216497 5.39335 0.0879665 6.2816 0.263466 7.15507C0.404466 7.61879 0.800841 7.98247 1.30634 8.1131C2.24197 8.34238 6.00584 8.34238 6.00584 8.34238C6.00584 8.34238 9.75772 8.34238 10.7027 8.1131C11.2108 7.98247 11.6053 7.61913 11.7478 7.15507C11.92 6.2816 12.004 5.39335 11.998 4.50544C12.004 3.61169 11.9218 2.72207 11.7478 1.8431ZM4.80434 6.15097V2.85269L7.93522 4.50544L4.80434 6.15097Z" fill="#B52118"/>
</svg>
